<?xml version="1.0" encoding="UTF-8"?>
<svg version="1.1" xmlns="http://www.w3.org/2000/svg" width="587" height="593">
<path d="M0 0 C193.71 0 387.42 0 587 0 C587 195.69 587 391.38 587 593 C393.29 593 199.58 593 0 593 C0 397.31 0 201.62 0 0 Z " fill="#FEFDFE" transform="translate(0,0)"/>
<path d="M0 0 C5.42179887 5.8000639 7.29004803 9.5705609 7.078125 17.3359375 C7.07246521 18.12650543 7.06680542 18.91707336 7.06097412 19.7315979 C7.03871487 22.23836727 6.98854153 24.74366813 6.9375 27.25 C6.91742133 28.9570105 6.89917296 30.66404357 6.8828125 32.37109375 C6.83888484 36.53962196 6.76993296 40.70706264 6.6875 44.875 C7.62053955 44.92253418 8.5535791 44.97006836 9.51489258 45.01904297 C10.75392334 45.09268066 11.9929541 45.16631836 13.26953125 45.2421875 C14.4913208 45.31034668 15.71311035 45.37850586 16.97192383 45.44873047 C32.76160654 47.26020205 48.75951821 58.6143089 58.875 70.5 C69.38403671 84.39149994 72.6875 97.68662378 72.6875 114.875 C61.4675 114.875 50.2475 114.875 38.6875 114.875 C37.6975 110.255 36.7075 105.635 35.6875 100.875 C34.09920027 97.5312111 32.73338364 94.85139096 30.6875 91.875 C29.98625 90.823125 29.285 89.77125 28.5625 88.6875 C24.00188986 83.52264498 17.09093763 80.38307271 10.49926758 78.79394531 C8.61244263 78.33906738 8.61244263 78.33906738 6.6875 77.875 C6.68972061 78.4343222 6.69194122 78.99364441 6.69422913 79.56991577 C6.71630582 85.37700768 6.73141661 91.18408772 6.74243164 96.99121094 C6.74746891 99.16016117 6.75429891 101.329108 6.76293945 103.49804688 C6.77503151 106.61068563 6.78073428 109.7232796 6.78515625 112.8359375 C6.79031754 113.809935 6.79547882 114.7839325 6.80079651 115.78744507 C6.80087204 116.68822784 6.80094757 117.58901062 6.80102539 118.51708984 C6.803246 119.31206879 6.80546661 120.10704773 6.80775452 120.92611694 C6.6875 122.875 6.6875 122.875 5.6875 124.875 C1.5757744 124.89965746 -2.53592278 124.91783959 -6.64770508 124.92993164 C-8.04745228 124.9349708 -9.4471942 124.94180216 -10.84692383 124.95043945 C-12.85495777 124.9625232 -14.86302957 124.96769807 -16.87109375 124.97265625 C-18.08079834 124.97789307 -19.29050293 124.98312988 -20.53686523 124.98852539 C-23.3125 124.875 -23.3125 124.875 -24.3125 123.875 C-24.40554018 122.40145652 -24.42996265 120.92349409 -24.42602539 119.44702148 C-24.42591209 118.03567177 -24.42591209 118.03567177 -24.42579651 116.59580994 C-24.42063522 115.57290359 -24.41547394 114.54999725 -24.41015625 113.49609375 C-24.4087413 112.45429459 -24.40732635 111.41249542 -24.40586853 110.33912659 C-24.4002508 106.99688906 -24.3876953 103.65471743 -24.375 100.3125 C-24.36998728 98.05273534 -24.36542398 95.79296963 -24.36132812 93.53320312 C-24.35027561 87.98044609 -24.33352024 82.42772775 -24.3125 76.875 C-26.04863847 77.46369172 -27.78098432 78.06357398 -29.51171875 78.66796875 C-30.47682373 79.00078857 -31.44192871 79.3336084 -32.4362793 79.67651367 C-41.88433859 83.61340554 -48.93530148 91.44046518 -53.1875 100.5625 C-56.06284174 107.97346145 -56.73171195 115.45331194 -54.125 123.0625 C-53.5517764 124.34758732 -52.9458573 125.61845981 -52.3125 126.875 C-51.96058594 127.61492187 -51.60867187 128.35484375 -51.24609375 129.1171875 C-47.38030738 136.69565979 -42.38683916 142.74919095 -34.3125 145.875 C-29.97994959 146.31037462 -25.66372129 146.26813606 -21.3125 146.24609375 C-18.70703002 146.26348825 -16.1015613 146.28107249 -13.49609375 146.29882812 C-9.41292113 146.31184627 -5.32977079 146.31251175 -1.24658203 146.31079102 C2.71079259 146.31072927 6.66773434 146.3418648 10.625 146.37109375 C11.82447266 146.36291122 13.02394531 146.3547287 14.25976562 146.34629822 C32.32468198 146.50247611 46.03310092 153.35266701 58.8203125 165.77734375 C71.40974065 178.7926032 77.19944707 195.1203171 77.25976562 212.94897461 C76.79229319 233.22559154 67.04144473 251.88231227 52.6875 265.875 C42.9740797 274.93527652 31.25373515 282.2126899 17.8828125 283.62109375 C15.71380332 283.64163567 15.71380332 283.64163567 14.6875 284.875 C12.35932036 285.24260731 10.0256615 285.57741581 7.6875 285.875 C7.67291748 287.18170654 7.65833496 288.48841309 7.64331055 289.8347168 C7.58527185 294.68981075 7.50803884 299.54444363 7.42504883 304.39916992 C7.39182578 306.49902861 7.3637857 308.59897603 7.34106445 310.69897461 C7.30747064 313.72027344 7.25515166 316.74076101 7.19921875 319.76171875 C7.19282883 320.69835861 7.1864389 321.63499847 7.17985535 322.60002136 C7.04917541 328.41326742 6.39518934 332.14664128 2.15234375 336.421875 C-2.20917209 339.85754477 -4.49139311 341.24470555 -10.15625 341.15234375 C-15.69760775 340.43959665 -19.75593564 337.04201489 -23.22721863 332.80355835 C-25.38848768 328.96295665 -24.91698506 324.73816457 -24.80078125 320.4453125 C-24.79370651 319.45498016 -24.78663177 318.46464783 -24.77934265 317.44430542 C-24.75145593 314.29542039 -24.68872678 311.1483434 -24.625 308 C-24.59990979 305.85940076 -24.57709789 303.71877353 -24.55664062 301.578125 C-24.50164855 296.34313788 -24.41808032 291.10919813 -24.3125 285.875 C-26.22339229 285.38710058 -28.13498817 284.90195628 -30.046875 284.41796875 C-31.11131836 284.14750732 -32.17576172 283.8770459 -33.27246094 283.59838867 C-35.70684747 283.01911729 -38.09043695 282.55344421 -40.5625 282.1875 C-56.30993252 278.76164174 -68.89155829 268.37788546 -78.3125 255.875 C-78.88226563 255.11960937 -79.45203125 254.36421875 -80.0390625 253.5859375 C-84.16482967 247.7675479 -86.75650324 241.5057742 -89.3125 234.875 C-89.84230469 233.63363281 -89.84230469 233.63363281 -90.3828125 232.3671875 C-91.39267094 229.66008799 -91.95390825 227.0978181 -92.4375 224.25 C-92.68886719 222.83847656 -92.68886719 222.83847656 -92.9453125 221.3984375 C-93.45034666 216.55225861 -93.38111964 211.74263762 -93.3125 206.875 C-88.34610043 206.99294962 -83.37991349 207.11717518 -78.41381836 207.24731445 C-76.72310701 207.29072439 -75.03235009 207.33239489 -73.34155273 207.37231445 C-70.91636394 207.42987094 -68.49140585 207.49360649 -66.06640625 207.55859375 C-65.30598526 207.57530624 -64.54556427 207.59201874 -63.76210022 207.60923767 C-58.42637171 207.76112829 -58.42637171 207.76112829 -57.3125 208.875 C-57.28509978 210.72908125 -57.26592578 212.58328469 -57.25 214.4375 C-56.44766082 225.83322362 -50.29929904 237.08895687 -42.3828125 245.23828125 C-36.98128155 249.50854817 -30.99068553 249.9209735 -24.3125 250.875 C-24.3125 235.035 -24.3125 219.195 -24.3125 202.875 C-14.0825 202.875 -3.8525 202.875 6.6875 202.875 C6.83193234 207.46072667 6.9749737 212.0464584 7.11474609 216.63232422 C7.16247923 218.18573347 7.21095663 219.73912007 7.26025391 221.29248047 C7.57273964 231.15810134 7.75879 241.0033158 7.6875 250.875 C18.70899181 249.67367539 24.51405136 247.00555738 31.5 238.375 C37.39275288 230.37481613 38.87334655 223.77372833 38.9375 214.0625 C38.958125 213.29357422 38.97875 212.52464844 39 211.73242188 C39.0548507 203.60766211 36.59051103 197.1293025 31.5546875 190.765625 C22.62927281 181.72817582 11.94527516 180.60108051 -0.078125 180.1640625 C-2.6028869 180.05258773 -5.12762586 179.94059222 -7.65234375 179.828125 C-11.60606014 179.66140497 -15.55982898 179.50010231 -19.51416016 179.34863281 C-23.34880818 179.19832954 -27.18202082 179.0262499 -31.015625 178.8515625 C-32.1836969 178.81286041 -33.3517688 178.77415833 -34.55523682 178.73428345 C-51.39038974 177.93143216 -64.85405122 170.08380589 -76.18359375 157.85546875 C-89.16053347 142.27736071 -92.66339581 124.28786996 -91.55810547 104.51660156 C-90.19436351 89.84891963 -82.26440659 74.44838684 -71.375 64.55859375 C-64.87243774 59.25063099 -57.96983176 54.97394891 -50.625 50.9375 C-49.912229 50.53539307 -49.19945801 50.13328613 -48.46508789 49.71899414 C-43.80755847 47.2341489 -40.5885121 46.42553632 -35.3125 46.875 C-35.3125 46.215 -35.3125 45.555 -35.3125 44.875 C-29.8675 44.38 -29.8675 44.38 -24.3125 43.875 C-24.31886475 42.79605469 -24.32522949 41.71710938 -24.33178711 40.60546875 C-24.34630401 36.57187148 -24.31472454 32.53968422 -24.26977539 28.50634766 C-24.25669981 26.76648781 -24.25584242 25.02648883 -24.26782227 23.28662109 C-24.36601321 6.96822141 -24.36601321 6.96822141 -20.00390625 1.75 C-14.58179954 -3.34970324 -6.15404569 -3.94787837 0 0 Z " fill="#9F82FE" transform="translate(301.3125,92.125)"/>
<path d="M0 0 C0.66 0 1.32 0 2 0 C2 89.43 2 178.86 2 271 C-87.76 271 -177.52 271 -270 271 C-269.67 270.01 -269.34 269.02 -269 268 C-267.86159668 267.80889648 -266.72319336 267.61779297 -265.55029297 267.42089844 C-261.25854922 266.69825786 -256.96865533 265.96509112 -252.67919922 265.22900391 C-250.83527405 264.91403079 -248.99088194 264.60177695 -247.14599609 264.29248047 C-236.18538426 262.45281232 -225.62873057 260.28837999 -215 257 C-212.73078163 256.36916164 -210.46009748 255.74355455 -208.1875 255.125 C-195.06689647 251.36366237 -182.46886107 246.52280819 -170 241 C-168.824375 240.49984375 -167.64875 239.9996875 -166.4375 239.484375 C-130.37478878 223.91184061 -96.18483387 198.1174567 -71 168 C-70.5251416 167.43361816 -70.0502832 166.86723633 -69.56103516 166.28369141 C-62.50392312 157.83449152 -55.87036205 149.33115899 -50 140 C-49.23909233 138.8249952 -48.47732968 137.65054375 -47.71484375 136.4765625 C-34.15461268 115.3991877 -22.4374061 93.38228691 -14.9375 69.4375 C-14.25961155 67.29020763 -13.58123453 65.14306943 -12.90234375 62.99609375 C-12.41773682 61.45356934 -12.41773682 61.45356934 -11.92333984 59.87988281 C-11.12408791 57.38702829 -10.27648453 54.91922308 -9.41015625 52.44921875 C-7.64807056 47.18790527 -6.56716318 41.81330458 -5.5 36.375 C-5.28641846 35.30064697 -5.07283691 34.22629395 -4.8527832 33.11938477 C-2.73218702 22.14439759 -1.26938387 11.10197125 0 0 Z " fill="#FEFEFE" transform="translate(585,322)"/>
<path d="M0 0 C0.33 0 0.66 0 1 0 C1.15033691 0.77375977 1.30067383 1.54751953 1.45556641 2.34472656 C4.41393639 17.43845098 7.58326852 32.28708449 12.34033203 46.93701172 C13.30739139 49.96130914 14.17473215 53.01414052 15.0625 56.0625 C16.56287444 60.90797157 18.41586205 65.43201311 20.59765625 70.0078125 C21.93535622 72.86206926 23.16765979 75.74937966 24.38867188 78.6550293 C28.27866213 87.83421549 32.89833906 96.44196902 38 105 C38.38526855 105.64936523 38.77053711 106.29873047 39.16748047 106.96777344 C51.51042347 127.6233107 66.19020971 146.14066718 82.68212891 163.60302734 C83.8093224 164.7978775 84.92712318 166.00157667 86.04296875 167.20703125 C91.07203114 172.47199849 96.72778545 176.83706585 102.484375 181.265625 C105.5849063 183.65554805 108.57646112 186.15547873 111.5625 188.6875 C116.81421635 193.00523764 122.40208624 196.48106597 128.24462891 199.93896484 C130.04423669 201.0267389 131.81058888 202.15568463 133.57421875 203.30078125 C141.46762965 208.40622336 149.54645663 213.01211122 157.875 217.375 C158.82552246 217.87483398 159.77604492 218.37466797 160.75537109 218.88964844 C165.89806046 221.54665976 171.05458026 223.92184666 176.45361328 226.0078125 C179.16911281 227.065894 181.84868602 228.1931588 184.53125 229.33203125 C204.67611508 237.7648047 225.04342349 243.76652629 246.70166016 246.67626953 C250.87688474 247.26436681 255.0306831 247.98264844 259.1875 248.6875 C260.70180053 248.94153975 262.21612119 249.19545952 263.73046875 249.44921875 C264.80941406 249.63097656 265.88835937 249.81273437 267 250 C267.33 250.99 267.66 251.98 268 253 C179.56 253 91.12 253 0 253 C0 169.51 0 86.02 0 0 Z " fill="#FEFEFE" transform="translate(0,340)"/>
<path d="M0 0 C0.99386719 -0.02900391 1.98773438 -0.05800781 3.01171875 -0.08789062 C10.35710875 -0.15180633 10.35710875 -0.15180633 14.1484375 2.140625 C15.12683594 3.21570313 15.12683594 3.21570313 16.125 4.3125 C16.63546875 4.81910156 17.1459375 5.32570312 17.671875 5.84765625 C23.77761252 13.59877109 22.27441236 24.71988655 22.27890015 34.11764526 C22.28547353 35.82316754 22.28547353 35.82316754 22.2921797 37.5631448 C22.305457 41.345321 22.31172115 45.12747397 22.31787109 48.90966797 C22.32526405 51.63221001 22.33404535 54.35474732 22.34265137 57.07728577 C22.36703609 65.21812557 22.38177098 73.35897119 22.39471143 81.49983615 C22.39843009 83.80010481 22.40240264 86.10037289 22.4064641 88.40064096 C22.43167999 102.70236452 22.4537199 117.00408917 22.46619225 131.30583 C22.46912156 134.60883462 22.47208331 137.91183921 22.47509766 141.21484375 C22.47584371 142.03571197 22.47658976 142.8565802 22.47735842 143.70232321 C22.49003916 157.02905524 22.52330976 170.35565471 22.56489949 183.68232463 C22.60728797 197.37731818 22.63088263 211.07224365 22.63611281 224.76730263 C22.63952768 232.45189173 22.65129407 240.13627252 22.68421555 247.82079697 C22.71217307 254.35682013 22.72323374 260.89259212 22.71202008 267.42867045 C22.70682455 270.76327435 22.71248854 274.09692444 22.73448563 277.43152428 C22.75702835 281.04454605 22.74895032 284.65623001 22.73300171 288.26925659 C22.75382484 289.85284432 22.75382484 289.85284432 22.77506864 291.46842372 C22.72234348 296.29646402 22.69626753 298.55723306 19.71199989 302.50270271 C17.125 304.3125 17.125 304.3125 15.125 304.3125 C15.125 304.9725 15.125 305.6325 15.125 306.3125 C9.832203 311.48148888 3.13075431 315.39825425 -3 319.5 C-3.7636084 320.01095215 -4.5272168 320.5219043 -5.31396484 321.04833984 C-7.48912657 322.48919032 -9.67646013 323.90762178 -11.875 325.3125 C-12.51405273 325.72580566 -13.15310547 326.13911133 -13.81152344 326.56494141 C-17.40281548 328.77429495 -19.70642237 329.4981936 -23.875 329.3125 C-23.94364421 289.15811129 -23.99651765 249.00373021 -24.02819599 208.84929457 C-24.03194818 204.11030435 -24.03583114 199.37131426 -24.03979492 194.63232422 C-24.04058185 193.68886381 -24.04136878 192.74540341 -24.04217956 191.77335329 C-24.0552388 176.49052019 -24.07889549 161.20772089 -24.10645839 145.92490785 C-24.13449818 130.24708894 -24.15117324 114.56928776 -24.15726548 98.8914448 C-24.16138489 89.21486805 -24.1744027 79.53838684 -24.1987494 69.86183949 C-24.21458898 63.22916709 -24.21940439 56.59654419 -24.21550413 49.96385424 C-24.21357981 46.13529159 -24.21656066 42.30689608 -24.23261642 38.47836304 C-24.24989074 34.32900193 -24.24397334 30.17999793 -24.23576355 26.03060913 C-24.24450207 24.81854652 -24.2532406 23.60648391 -24.26224393 22.35769212 C-24.22598856 15.60390979 -23.93624765 10.63117075 -19.15625 5.44921875 C-18.5684375 4.97097656 -17.980625 4.49273437 -17.375 4 C-16.7871875 3.50886719 -16.199375 3.01773438 -15.59375 2.51171875 C-10.99504023 -0.69692648 -5.36556065 0.05179113 0 0 Z " fill="#9E81FE" transform="translate(428.875,172.6875)"/>
<path d="M0 0 C1.70492881 1.70492881 1.1280442 3.84534261 1.13894653 6.11901855 C1.13591019 7.18932312 1.13591019 7.18932312 1.1328125 8.28125 C1.13424759 9.37427429 1.13424759 9.37427429 1.13571167 10.48937988 C1.13639335 12.0327971 1.13453988 13.57621717 1.13037109 15.11962891 C1.12502262 17.489974 1.13031642 19.86012959 1.13671875 22.23046875 C1.13605797 23.72656292 1.1347768 25.22265697 1.1328125 26.71875 C1.13483673 27.43228638 1.13686096 28.14582275 1.13894653 28.88098145 C1.11495191 33.88504809 1.11495191 33.88504809 0 35 C-2.27843978 35.27681094 -4.56431906 35.49272841 -6.8515625 35.68359375 C-8.27474948 35.80782939 -9.69792623 35.93218221 -11.12109375 36.05664062 C-13.36553508 36.24754769 -15.61013098 36.4362677 -17.85498047 36.62231445 C-20.02105958 36.80350099 -22.18627915 36.99316416 -24.3515625 37.18359375 C-25.64916504 37.29243896 -26.94676758 37.40128418 -28.28369141 37.51342773 C-32.01954674 38.00255923 -35.40260629 38.89896875 -39 40 C-41.14287273 40.39156373 -43.28899049 40.76564976 -45.4375 41.125 C-52.58235882 42.52259713 -59.40343741 44.58914341 -66.3125 46.875 C-67.314021 47.20258301 -68.31554199 47.53016602 -69.34741211 47.86767578 C-75.09772648 49.81376052 -80.44590544 52.10953209 -85.83178711 54.90673828 C-88.36533688 56.18421108 -90.9259755 57.13096425 -93.625 58 C-97.81892439 59.45901313 -101.31852195 61.21135137 -104.953125 63.75390625 C-107 65 -107 65 -110.1640625 66.3046875 C-114.78553415 68.2337721 -118.91252893 70.87478578 -123.125 73.5625 C-124.37470581 74.35660278 -124.37470581 74.35660278 -125.6496582 75.16674805 C-135.7484929 81.6635126 -145.10033417 88.93356982 -154 97 C-155.21816406 98.08087891 -155.21816406 98.08087891 -156.4609375 99.18359375 C-161.01706243 103.24032361 -165.43783576 107.34635954 -169.625 111.78515625 C-171 113 -171 113 -173 113 C-173.39674927 113.89174927 -173.39674927 113.89174927 -173.80151367 114.80151367 C-175.04235083 117.07768777 -176.2835786 118.42255547 -178.17578125 120.17578125 C-182.30303688 124.19209489 -185.74900777 128.57695964 -189.1875 133.1875 C-190.16251465 134.49473022 -190.16251465 134.49473022 -191.15722656 135.82836914 C-200.31761011 148.31012033 -207.86988076 161.65700375 -215.125 175.3125 C-215.58680664 176.1780249 -216.04861328 177.0435498 -216.52441406 177.93530273 C-218.93549751 182.56896179 -220.77903651 186.91722504 -222 192 C-222.66 192 -223.32 192 -224 192 C-224.08894531 192.77730469 -224.17789063 193.55460938 -224.26953125 194.35546875 C-225.04530683 198.22604957 -226.27425355 201.68616115 -227.62866211 205.3840332 C-235.1492514 226.18400289 -239.55778787 248.76211004 -239.89453125 270.90625 C-240 274 -240 274 -241 275 C-243.52094076 275.08847743 -246.01430893 275.11527301 -248.53515625 275.09765625 C-249.66503212 275.09553383 -249.66503212 275.09553383 -250.81773376 275.09336853 C-253.2326956 275.08775376 -255.64756601 275.07519883 -258.0625 275.0625 C-259.69596221 275.0574869 -261.32942586 275.05292366 -262.96289062 275.04882812 C-266.97529585 275.03777954 -270.98763241 275.02050506 -275 275 C-275.70706208 257.266883 -274.18270367 241.22827908 -270 224 C-269.77586426 223.04706055 -269.55172852 222.09412109 -269.32080078 221.11230469 C-263.8182116 197.7273174 -263.8182116 197.7273174 -260 192 C-259.55332253 190.41944896 -259.10905941 188.83818287 -258.67578125 187.25390625 C-255.58979409 176.96133635 -250.88875419 167.46832346 -245.9921875 157.95361328 C-245.0639387 156.12589505 -244.17120915 154.28025898 -243.28125 152.43359375 C-236.40722303 138.18295764 -227.91702864 125.30092975 -218 113 C-217.236875 112.04351562 -216.47375 111.08703125 -215.6875 110.1015625 C-211.39418381 104.7796393 -206.94943598 99.62859759 -202.3359375 94.58203125 C-200.41689434 92.46081465 -198.54592521 90.31170763 -196.6796875 88.14453125 C-185.36167771 75.20123954 -172.02237448 64.83287115 -158 55 C-157.2771582 54.48920898 -156.55431641 53.97841797 -155.80957031 53.45214844 C-130.56395996 35.6461221 -104.22256071 22.4514665 -74.91748047 12.65136719 C-73.00945867 12.00321311 -71.11602611 11.32247333 -69.22265625 10.6328125 C-61.22653107 7.79683106 -53.42272106 5.97651609 -45.0703125 4.67578125 C-42.20231828 4.22748312 -39.3966945 3.64940887 -36.5703125 2.98828125 C-31.98727469 1.9455197 -27.42325248 1.34522489 -22.75 0.875 C-21.52144287 0.74871216 -21.52144287 0.74871216 -20.26806641 0.61987305 C-13.53317364 -0.03067884 -6.76273496 -0.49965224 0 0 Z " fill="#9F82FE" transform="translate(275,2)"/>
<path d="M0 0 C4.68139254 -0.02465288 9.36274759 -0.04283739 14.04418945 -0.05493164 C15.63794614 -0.05997157 17.23169819 -0.0668035 18.82543945 -0.07543945 C21.11150253 -0.08751999 23.39750467 -0.09323155 25.68359375 -0.09765625 C26.40026718 -0.10281754 27.11694061 -0.10797882 27.85533142 -0.11329651 C29.57063672 -0.11349263 31.28581266 -0.06192007 33 0 C34.65330457 1.65330457 34.34376995 3.70480714 34.54296875 5.984375 C37.04671375 32.4094668 41.63796819 58.44561334 52 83 C52.32097656 83.83660156 52.64195313 84.67320312 52.97265625 85.53515625 C71.84831149 133.63763251 108.03365884 177.04884912 152 204 C152.64952637 204.4021875 153.29905273 204.804375 153.96826172 205.21875 C191.50202349 228.35538138 231.31420056 239.45790815 275 243 C275 254.88 275 266.76 275 279 C269.62658862 279 265.61085415 278.92695584 260.515625 277.9765625 C258.74058594 277.65171875 258.74058594 277.65171875 256.9296875 277.3203125 C255.71539062 277.09085938 254.50109375 276.86140625 253.25 276.625 C250.83866276 276.17903225 248.42720531 275.73371397 246.015625 275.2890625 C244.83444092 275.06863281 243.65325684 274.84820313 242.4362793 274.62109375 C239.26623581 274.04812106 236.09279303 273.53621078 232.91015625 273.0390625 C226.56196506 271.99210122 220.39275087 270.43716541 214.1875 268.75 C212.4861792 268.28920044 212.4861792 268.28920044 210.75048828 267.8190918 C199.98976285 264.83495404 189.8373217 261.15072486 179.94458008 255.92480469 C177.94554188 254.97410077 175.98669294 254.31897109 173.87109375 253.671875 C168.82688824 252.02040047 164.16747278 249.83121092 159.4375 247.4375 C158.5719751 247.00203857 157.7064502 246.56657715 156.81469727 246.11791992 C149.16352928 242.20345056 141.90012915 237.80241865 134.70751953 233.10791016 C132.28547145 231.53638397 129.82709687 230.0240835 127.375 228.5 C116.02342647 221.22073984 105.5813063 213.21590904 95.47900391 204.29980469 C94.24015301 203.21105557 92.98696032 202.13865473 91.73046875 201.0703125 C83.15796817 193.77233849 75.19370723 185.65625763 68 177 C67.42378906 176.31292969 66.84757812 175.62585938 66.25390625 174.91796875 C55.44796383 161.73067519 45.84434966 147.73555613 37.20947266 133.04736328 C36.10941257 131.1852107 34.98703209 129.33919857 33.85546875 127.49609375 C27.84690387 117.45811652 23.40911079 106.81458346 19 96 C18.6589624 95.16831299 18.3179248 94.33662598 17.96655273 93.47973633 C11.75092475 78.16217363 7.00418652 62.51100394 3.52001953 46.35742188 C3.05814753 44.26360213 2.55242906 42.18799607 2.02734375 40.109375 C-0.99020562 26.91636847 -0.27650799 13.45388613 0 0 Z " fill="#9F82FE" transform="translate(0,312)"/>
<path d="M0 0 C1.43352212 0.00015908 2.86704998 0.00585132 4.30053711 0.01586914 C5.43041298 0.01799156 5.43041298 0.01799156 6.58311462 0.02015686 C8.99807646 0.02577163 11.41294687 0.03832656 13.82788086 0.05102539 C15.46134307 0.05603849 17.09480672 0.06060173 18.72827148 0.06469727 C22.74067671 0.07574585 26.75301326 0.09302033 30.76538086 0.11352539 C30.92536494 7.07330055 30.51009373 13.78032053 29.57788086 20.67602539 C29.38258789 22.14193115 29.38258789 22.14193115 29.18334961 23.63745117 C28.11466877 31.30159294 26.76435146 38.89754829 25.26538086 46.48852539 C25.06404541 47.51534424 24.86270996 48.54216309 24.65527344 49.60009766 C23.59539501 54.77959981 22.33695359 59.75765293 20.58666992 64.74584961 C19.62969649 67.50468682 18.76269294 70.28528647 17.89819336 73.07446289 C17.56948242 74.12375977 17.24077148 75.17305664 16.90209961 76.25415039 C16.23054095 78.40106378 15.56382807 80.54949927 14.90209961 82.69946289 C12.67293595 89.77727434 9.93775452 96.41183416 6.76538086 103.11352539 C6.17558682 104.48576654 5.59101399 105.86028402 5.01538086 107.23852539 C-4.84216947 129.40811649 -18.21261734 150.13868236 -33.23461914 169.11352539 C-33.94231445 170.0171582 -34.65000977 170.92079102 -35.37915039 171.85180664 C-41.41319592 179.40835716 -47.97139728 186.44740506 -54.64086914 193.44067383 C-55.98165155 194.84800242 -57.31244434 196.26483867 -58.64086914 197.68383789 C-64.45881054 203.74057539 -70.96905717 208.76414458 -77.61987305 213.85717773 C-79.74695215 215.51214433 -81.79687711 217.25436174 -83.85961914 218.98852539 C-103.54310248 234.76116886 -126.62521333 247.77167183 -150.2668457 256.38598633 C-153.16941115 257.45914328 -156.04368816 258.60248604 -158.92211914 259.73852539 C-165.27190592 262.18616488 -171.70503293 264.20487711 -178.23461914 266.11352539 C-179.33418945 266.44223633 -180.43375977 266.77094727 -181.56665039 267.10961914 C-195.86535484 271.30935291 -210.17357847 274.38105125 -224.85961914 276.86352539 C-225.51841064 276.97638885 -226.17720215 277.08925232 -226.85595703 277.20553589 C-228.76489347 277.5305821 -230.67552444 277.84562679 -232.58618164 278.16040039 C-234.25414795 278.4364209 -234.25414795 278.4364209 -235.95581055 278.71801758 C-239.23461914 279.11352539 -239.23461914 279.11352539 -246.23461914 279.11352539 C-246.23461914 267.56352539 -246.23461914 256.01352539 -246.23461914 244.11352539 C-237.81961914 243.12352539 -237.81961914 243.12352539 -229.23461914 242.11352539 C-225.89638957 241.39463288 -225.89638957 241.39463288 -222.57446289 240.60571289 C-219.45924846 239.95042572 -216.33303136 239.61349313 -213.17211914 239.23852539 C-198.12754208 237.27749097 -184.29703562 232.6746755 -170.23461914 227.11352539 C-169.4624707 226.80930664 -168.69032227 226.50508789 -167.89477539 226.19165039 C-139.79122099 215.00709923 -113.84891561 200.7728655 -91.50805664 180.20336914 C-89.38831702 178.25481124 -87.22978445 176.36595206 -85.04711914 174.48852539 C-78.16120911 168.4564682 -72.31613916 161.94005346 -66.59448242 154.79418945 C-65.07370408 152.9146494 -63.52868219 151.05666595 -61.98071289 149.19946289 C-54.18065712 139.82623606 -54.18065712 139.82623606 -47.65673828 129.54638672 C-46.24597075 127.13294493 -44.6877534 124.95185982 -43.02368164 122.70727539 C-39.03343507 117.05416528 -35.92595268 111.03472813 -32.88989258 104.83569336 C-31.98021865 102.97954639 -31.05767196 101.13023659 -30.13305664 99.28149414 C-27.17373685 93.32638618 -24.40028014 87.40649683 -22.23461914 81.11352539 C-21.57461914 81.11352539 -20.91461914 81.11352539 -20.23461914 81.11352539 C-20.10700195 79.95530273 -20.10700195 79.95530273 -19.97680664 78.77368164 C-19.17137186 74.80161642 -17.87784175 71.25893664 -16.45385742 67.47436523 C-12.21045232 56.13778945 -9.77092953 45.35454017 -8.48608398 33.3449707 C-8.14677895 30.33405032 -7.66536338 27.35265963 -7.17211914 24.36352539 C-6.239512 18.45701351 -5.55867886 12.52897495 -4.93164062 6.58325195 C-4.22366999 0.1482381 -4.22366999 0.1482381 0 0 Z " fill="#9F82FE" transform="translate(555.234619140625,311.886474609375)"/>
<path d="M0 0 C7.24334787 0 13.97527968 0.36430613 21.125 1.1875 C22.81351074 1.38170532 22.81351074 1.38170532 24.53613281 1.57983398 C37.83488793 3.21192007 51.32205005 5.56190169 64 10 C65.65143869 10.52240102 67.30390587 11.041555 68.95703125 11.55859375 C94.84739971 19.79978471 120.44231536 30.67720301 143 46 C143.58813477 46.39268066 144.17626953 46.78536133 144.78222656 47.18994141 C152.36303594 52.25206399 159.79655906 57.47376765 167 63.0625 C167.60561768 63.5275293 168.21123535 63.99255859 168.83520508 64.47167969 C170.26363189 65.59866843 171.63810982 66.79345042 173 68 C173 68.66 173 69.32 173 70 C173.5465625 70.24105469 174.093125 70.48210937 174.65625 70.73046875 C177.5574783 72.30196741 179.94552604 74.22470878 182.5 76.3125 C183.4384375 77.07175781 184.376875 77.83101563 185.34375 78.61328125 C187.9004227 80.91052686 189.88671706 83.3014315 192 86 C193.010625 86.804375 194.02125 87.60875 195.0625 88.4375 C200.46353379 92.92290789 204.45010829 98.7434162 208.68505859 104.29296875 C210.49797096 106.64645617 212.37343757 108.94711174 214.25 111.25 C229.58071553 130.42891133 243.55811882 153.34435211 253 176 C253.27287842 176.65025146 253.54575684 177.30050293 253.8269043 177.97045898 C262.07777668 197.66768268 268.01954739 217.31113026 272.75 238.125 C272.90465729 238.80139526 273.05931458 239.47779053 273.21865845 240.17468262 C275.92333341 252.0465111 277 261.60599552 277 274 C265.78 274 254.56 274 243 274 C240.75683187 262.78415933 240.75683187 262.78415933 240.25390625 258.44921875 C240.08411255 257.04119995 240.08411255 257.04119995 239.91088867 255.60473633 C239.79592041 254.64204834 239.68095215 253.67936035 239.5625 252.6875 C236.24264739 226.43464671 228.23756322 200.21468938 215.91113281 176.76806641 C214.65880754 174.3379111 213.5304281 171.85243632 212.375 169.375 C196.17969441 137.11605797 171.36590682 107.94868674 142 87 C140.92337846 86.20591726 139.84788804 85.41029904 138.7734375 84.61328125 C112.60034488 65.35146741 84.08937124 52.19361762 53 43 C52.29456055 42.75991211 51.58912109 42.51982422 50.86230469 42.27246094 C43.91604318 39.98580342 36.8964942 38.98931403 29.66015625 38.11962891 C27.63424843 37.87611168 25.61010347 37.62083993 23.5859375 37.36328125 C15.72662413 36.38058544 7.9043153 35.65869294 0 35 C0 23.45 0 11.9 0 0 Z " fill="#9F82FE" transform="translate(309,2)"/>
<path d="M0 0 C7.09072938 0.68429668 12.621983 4.22030519 17.25 9.5 C19.95972601 12.89468453 20.87505684 14.93892717 20.87304783 19.30652046 C20.87503888 20.25798616 20.87702993 21.20945185 20.87908131 22.18974984 C20.87471205 23.76851822 20.87471205 23.76851822 20.87025452 25.37918091 C20.87110894 26.491616 20.87196337 27.60405109 20.87284368 28.75019634 C20.87449964 32.50291386 20.8689752 36.25558734 20.86352539 40.00830078 C20.86324352 42.6883657 20.86335715 45.36842785 20.8639679 48.04849243 C20.86449303 53.83141669 20.86134735 59.6143297 20.85573006 65.39725113 C20.8476136 73.75845223 20.84499969 82.11964786 20.84374207 90.48085247 C20.84155178 104.04534354 20.83489231 117.6098286 20.82543945 131.17431641 C20.81626474 144.35335256 20.8091842 157.53238708 20.80493164 170.71142578 C20.80466892 171.52336313 20.80440619 172.33530048 20.80413551 173.17184199 C20.8028305 177.2449681 20.80156679 181.31809421 20.80032361 185.39122033 C20.78995171 219.19831791 20.77233401 253.00540822 20.75 286.8125 C19.76 286.8125 18.77 286.8125 17.75 286.8125 C14.75 282.59027778 14.75 282.59027778 14.75 279.8125 C15.41 279.8125 16.07 279.8125 16.75 279.8125 C16.75 279.1525 16.75 278.4925 16.75 277.8125 C15.1 278.1425 13.45 278.4725 11.75 278.8125 C4.62819534 269.54749805 -1.65110175 260.18783465 -7.14404297 249.87158203 C-8.27085369 247.77367439 -9.43088805 245.69700696 -10.59765625 243.62109375 C-15.52552328 234.74684358 -19.57424923 225.80655539 -22.54886532 216.08669949 C-23.01705454 214.56808158 -23.50691538 213.05597999 -24.01793003 211.55123234 C-26.5696843 203.40112828 -26.68219565 195.48476751 -26.65405273 187.03491211 C-26.65976662 185.4731752 -26.66673479 183.91144246 -26.67485046 182.34971619 C-26.69268103 178.13902557 -26.69163312 173.92854448 -26.68590808 169.71782756 C-26.68280264 166.19152236 -26.68892341 162.66525664 -26.69494683 159.13895708 C-26.70895618 150.81680666 -26.70745973 142.49475897 -26.69604492 134.17260742 C-26.68455687 125.60816149 -26.69865904 117.04402847 -26.7254414 108.47962373 C-26.74763784 101.1034882 -26.75422721 93.72745062 -26.74836498 86.35128409 C-26.74500488 81.95575649 -26.74734768 77.5604296 -26.76461601 73.16493034 C-26.78014711 69.0319871 -26.77606189 64.89950598 -26.75731087 60.76658058 C-26.7536425 59.25658121 -26.75668196 57.74654711 -26.76719666 56.2365799 C-26.83592858 45.544133 -25.35293205 37.13169265 -19.4375 28.0625 C-16.93160965 24.05054424 -14.76500062 19.93265586 -12.6875 15.6875 C-12.09088519 14.49427038 -11.49325459 13.30154803 -10.89453125 12.109375 C-9.90829215 10.13221159 -8.94078168 8.14529076 -8.01171875 6.140625 C-5.96435589 2.17254028 -4.61736183 0.32752913 0 0 Z " fill="#9F82FE" transform="translate(94.25,165.1875)"/>
<path d="M0 0 C2.16393827 -0.00218237 4.3273631 -0.02033848 6.49121094 -0.03930664 C7.8740217 -0.04224172 9.25683488 -0.04422575 10.63964844 -0.04516602 C12.51982666 -0.05132935 12.51982666 -0.05132935 14.43798828 -0.05761719 C17.67655333 0.17612518 19.8974909 0.78958416 22.80371094 2.18530273 C22.80371094 2.84530273 22.80371094 3.50530273 22.80371094 4.18530273 C24.12371094 4.84530273 25.44371094 5.50530273 26.80371094 6.18530273 C26.80371094 74.82530273 26.80371094 143.46530273 26.80371094 214.18530273 C18.92589927 214.18530273 18.92589927 214.18530273 15.46386719 211.98999023 C14.71041016 211.52077148 13.95695312 211.05155273 13.18066406 210.56811523 C12.41689453 210.07053711 11.653125 209.57295898 10.86621094 209.06030273 C10.10630859 208.58592773 9.34640625 208.11155273 8.56347656 207.62280273 C3.44693972 204.38946604 -1.3929394 200.8627293 -6.19628906 197.18530273 C-7.36224609 196.33258789 -7.36224609 196.33258789 -8.55175781 195.46264648 C-9.15632812 195.02049805 -9.76089844 194.57834961 -10.38378906 194.12280273 C-10.99609375 193.67807617 -11.60839844 193.23334961 -12.23925781 192.77514648 C-19.00115372 187.28194961 -19.00115372 187.28194961 -19.81152821 182.72770214 C-19.83241286 181.37682361 -19.82592499 180.02534852 -19.79756165 178.67460632 C-19.80183377 177.92712767 -19.80610589 177.17964902 -19.81050748 176.40951949 C-19.81873187 173.9092814 -19.79126388 171.41072756 -19.76391602 168.91064453 C-19.76250542 167.11682678 -19.76329776 165.32300614 -19.76612854 163.52919006 C-19.76756364 158.6616199 -19.73815863 153.79466528 -19.70325875 148.92723823 C-19.67201092 143.8396922 -19.66906575 138.75213219 -19.66313171 133.664505 C-19.64758867 124.03139225 -19.60655386 114.39856308 -19.55638427 104.76557523 C-19.50050524 93.79835614 -19.47300791 82.83112354 -19.44790709 71.86379755 C-19.3956385 49.30414203 -19.30768713 26.74473827 -19.19628906 4.18530273 C-18.53628906 4.18530273 -17.87628906 4.18530273 -17.19628906 4.18530273 C-16.86628906 3.19530273 -16.53628906 2.20530273 -16.19628906 1.18530273 C-11.00506379 -0.54510569 -5.43487502 -0.00061508 0 0 Z " fill="#9F83FE" transform="translate(157.1962890625,289.814697265625)"/>
<path d="M0 0 C0.73336075 -0.01189865 1.4667215 -0.0237973 2.2223053 -0.03605652 C3.76783024 -0.05254713 5.31354335 -0.05598238 6.85913086 -0.04711914 C9.21466865 -0.04298278 11.56164606 -0.10807556 13.91601562 -0.17773438 C24.84201518 -0.3081371 24.84201518 -0.3081371 28.65283203 2.53759766 C30.19322935 4.56893629 31.29509124 6.42756065 32.28515625 8.76953125 C32.78015625 9.75953125 32.78015625 9.75953125 33.28515625 10.76953125 C33.38343753 13.26906685 33.42145828 15.74068472 33.41455078 18.24047852 C33.4163031 19.01371964 33.41805542 19.78696075 33.41986084 20.58363342 C33.42429357 23.16775709 33.42132538 25.75181299 33.41796875 28.3359375 C33.41864402 30.1629996 33.41961589 31.99006162 33.42086792 33.81712341 C33.42234887 37.68188314 33.42018727 41.54661989 33.41552734 45.41137695 C33.40998409 50.2313309 33.41311708 55.05122785 33.41894913 59.87117958 C33.43866239 78.8858043 33.35673607 97.8983509 32.95821762 116.90931511 C32.92141678 118.68768628 32.88742286 120.46611809 32.85644913 122.2446003 C32.81208573 124.70236511 32.75534833 127.15952981 32.69482422 129.61694336 C32.68366451 130.32810995 32.67250481 131.03927654 32.66100693 131.77199364 C32.48380729 137.92045907 31.74547636 143.57905109 28.28515625 148.76953125 C27.19807216 152.10297269 26.24734461 155.46451969 25.28515625 158.8359375 C24.28515625 161.76953125 24.28515625 161.76953125 22.28515625 163.76953125 C21.8619327 165.17254631 21.49554066 166.59296659 21.16015625 168.01953125 C19.6740678 173.2433573 17.24319649 177.65855396 14.48120117 182.28491211 C11.23841787 187.73406409 8.51133955 193.35910095 5.828125 199.1015625 C4.28515625 201.76953125 4.28515625 201.76953125 1.28515625 202.76953125 C1.28515625 201.11953125 1.28515625 199.46953125 1.28515625 197.76953125 C0.62515625 198.09953125 -0.03484375 198.42953125 -0.71484375 198.76953125 C-1.37256803 201.79887616 -1.37256803 201.79887616 -1.71484375 204.76953125 C-2.70484375 204.76953125 -3.69484375 204.76953125 -4.71484375 204.76953125 C-5.04484375 204.10953125 -5.37484375 203.44953125 -5.71484375 202.76953125 C-6.20984375 204.74953125 -6.20984375 204.74953125 -6.71484375 206.76953125 C-7.70484375 206.76953125 -8.69484375 206.76953125 -9.71484375 206.76953125 C-9.71484375 208.74953125 -9.71484375 210.72953125 -9.71484375 212.76953125 C-10.37484375 212.76953125 -11.03484375 212.76953125 -11.71484375 212.76953125 C-12.49743156 207.23215962 -12.8650233 201.87433036 -12.8687439 196.28633118 C-12.87312615 195.47039669 -12.8775084 194.6544622 -12.88202345 193.81380242 C-12.89529845 191.10023099 -12.90156437 188.38669193 -12.90771484 185.6730957 C-12.91562407 183.71946062 -12.92389352 181.76582698 -12.93249512 179.81219482 C-12.95859691 173.41908136 -12.97400016 167.02596168 -12.98828125 160.6328125 C-12.99364378 158.42887048 -12.9990213 156.2249285 -13.0044136 154.02098656 C-13.02601534 144.8581324 -13.04475516 135.69527994 -13.056036 126.53240681 C-13.0723034 113.40802414 -13.10557974 100.28393607 -13.16243684 87.15966445 C-13.20108621 77.92383259 -13.22066212 68.68807975 -13.22595656 59.45216912 C-13.22961376 53.93719457 -13.24167658 48.42253511 -13.2740593 42.90764809 C-13.3040556 37.72582232 -13.31048195 32.54450385 -13.29867554 27.36260986 C-13.29845417 25.4602539 -13.30681129 23.55787491 -13.32432938 21.65559959 C-13.34693114 19.06037778 -13.33876925 16.46701023 -13.32284546 13.8717804 C-13.33672755 13.11750285 -13.35060963 12.3632253 -13.36491239 11.58609086 C-13.30572824 7.67730959 -12.83558795 5.9241788 -10.40143776 2.80655193 C-6.97132552 0.20578324 -4.15391206 -0.00421875 0 0 Z " fill="#9F82FE" transform="translate(486.71484375,225.23046875)"/>
<path d="M0 0 C1.0979187 -0.00574036 1.0979187 -0.00574036 2.21801758 -0.01159668 C3.75766382 -0.0143053 5.29735691 -0.00701781 6.83691406 0.00976562 C9.18139113 0.03119416 11.5228047 0.00993221 13.8671875 -0.015625 C15.36979837 -0.01298153 16.87240734 -0.00785615 18.375 0 C19.06891846 -0.00809692 19.76283691 -0.01619385 20.4777832 -0.02453613 C25.53754389 0.07199593 28.40987397 1.18561866 32.1875 4.53125 C32.77480926 7.58034961 32.95181384 9.83517037 32.86865234 12.87988281 C32.86996658 14.13896957 32.86996658 14.13896957 32.87130737 15.42349243 C32.867131 18.19473728 32.82047912 20.96355376 32.7734375 23.734375 C32.76224548 25.65678586 32.75370532 27.57921385 32.74771118 29.50164795 C32.7248133 34.55899388 32.66588166 39.61530419 32.5994873 44.67224121 C32.53808553 49.83343495 32.51070066 54.99479621 32.48046875 60.15625 C32.41613948 70.28170477 32.31374822 80.40639124 32.1875 90.53125 C30.2726677 90.21974319 28.35818341 89.90609666 26.44384766 89.59155273 C25.37768219 89.41712143 24.31151672 89.24269012 23.21304321 89.06297302 C19.58405283 88.42519739 16.11424807 87.57422148 12.5625 86.59375 C11.29921875 86.24570312 10.0359375 85.89765625 8.734375 85.5390625 C2.62228399 83.80236704 -3.44413118 81.9930094 -9.47119141 79.98071289 C-10.28359283 79.70957169 -11.09599426 79.43843048 -11.93301392 79.15907288 C-12.55324432 78.95189133 -13.17347473 78.74470978 -13.8125 78.53125 C-13.95150064 68.95207814 -14.05812024 59.37325318 -14.12337303 49.793293 C-14.15469098 45.344906 -14.19717083 40.89720874 -14.26513672 36.44921875 C-14.33031494 32.15681939 -14.36620255 27.86508348 -14.38176346 23.57222748 C-14.3928528 21.93426821 -14.41450856 20.29634541 -14.44688034 18.65866852 C-14.49042812 16.36442037 -14.49643553 14.07291504 -14.49365234 11.77832031 C-14.50697601 10.47260071 -14.52029968 9.1668811 -14.5340271 7.82159424 C-13.8125 4.53125 -13.8125 4.53125 -11.00161743 2.11065674 C-7.24254135 0.24897863 -4.10677903 -0.04791957 0 0 Z " fill="#A083FE" transform="translate(218.8125,438.46875)"/>
<path d="M0 0 C0 24.42 0 48.84 0 74 C-3.96 75.32 -7.92 76.64 -12 78 C-14.73736433 79.02620475 -17.4644841 80.06336671 -20.1875 81.125 C-27.64580989 83.9676947 -34.88342921 86.60874281 -43 86 C-44.67982583 84.32017417 -44.16792945 82.23363304 -44.20532227 79.92724609 C-44.2352401 78.29690933 -44.2352401 78.29690933 -44.26576233 76.63363647 C-44.29083107 74.84658798 -44.29083107 74.84658798 -44.31640625 73.0234375 C-44.33718735 71.79203033 -44.35796844 70.56062317 -44.37937927 69.29190063 C-44.42278304 66.66384564 -44.46433709 64.03584069 -44.50268555 61.40771484 C-44.56022969 57.46831858 -44.62652083 53.52909382 -44.69335938 49.58984375 C-44.79842378 43.26265403 -44.87696766 36.93543361 -44.94854736 30.60778809 C-44.99846351 27.10773676 -45.07969827 23.60963177 -45.16748047 20.11035156 C-45.20468443 18.02409885 -45.24133888 15.93783625 -45.27734375 13.8515625 C-45.3092128 12.90517914 -45.34108185 11.95879578 -45.37391663 10.98373413 C-45.4511818 4.65181092 -45.4511818 4.65181092 -43.23266602 1.44677734 C-39.59895959 -0.90788031 -36.67301488 -1.12549145 -32.41015625 -1.0625 C-31.54326172 -1.05476563 -30.67636719 -1.04703125 -29.78320312 -1.0390625 C-27.97330649 -1.01307691 -26.16341065 -0.98703548 -24.35351562 -0.9609375 C-1.51495181 -0.75747591 -1.51495181 -0.75747591 0 0 Z " fill="#9F82FE" transform="translate(383,441)"/>
<path d="M0 0 C0.85658203 -0.00128906 1.71316406 -0.00257813 2.59570312 -0.00390625 C3.9347168 0.00189453 3.9347168 0.00189453 5.30078125 0.0078125 C6.61079102 0.00201172 6.61079102 0.00201172 7.94726562 -0.00390625 C13.25997717 0.00402909 18.35646768 0.36173158 23.61328125 1.1328125 C23.61328125 1.7928125 23.61328125 2.4528125 23.61328125 3.1328125 C24.41765625 3.2565625 25.22203125 3.3803125 26.05078125 3.5078125 C27.31921875 3.8171875 27.31921875 3.8171875 28.61328125 4.1328125 C29.87700169 6.66025338 29.7335092 8.39661558 29.72680664 11.22509766 C29.72673111 12.28604645 29.72665558 13.34699524 29.72657776 14.44009399 C29.72141647 15.58908173 29.71625519 16.73806946 29.7109375 17.921875 C29.70952255 19.09543549 29.7081076 20.26899597 29.70664978 21.4781189 C29.70103814 25.23804235 29.68848363 28.99790695 29.67578125 32.7578125 C29.67076775 35.30208248 29.66620458 37.84635338 29.66210938 40.390625 C29.65106493 46.63804103 29.63431543 52.88542256 29.61328125 59.1328125 C24.75300337 61.06953561 20.35374662 61.41255727 15.1875 61.36328125 C14.00520561 61.36259392 14.00520561 61.36259392 12.79902649 61.3618927 C11.14424114 61.35888667 9.48945821 61.35105015 7.8347168 61.33862305 C5.29140315 61.32024473 2.74845158 61.31811442 0.20507812 61.31835938 C-1.40495109 61.31344816 -3.01497783 61.30762158 -4.625 61.30078125 C-5.77020866 61.29911201 -5.77020866 61.29911201 -6.93855286 61.29740906 C-12.27062867 61.24890258 -12.27062867 61.24890258 -13.38671875 60.1328125 C-13.51145829 58.50825978 -13.56738269 56.87836034 -13.59545898 55.24926758 C-13.6147496 54.20760941 -13.63404022 53.16595123 -13.65391541 52.09272766 C-13.71147064 47.30949119 -13.76095905 42.52641019 -13.79174805 37.74291992 C-13.81331983 35.21999416 -13.84741232 32.69714306 -13.89428711 30.17456055 C-13.96122054 26.54181395 -13.98874097 22.91061972 -14.0078125 19.27734375 C-14.03564316 18.15213821 -14.06347382 17.02693268 -14.09214783 15.86763 C-14.06919952 7.12157477 -14.06919952 7.12157477 -10.53540039 3.4362793 C-6.82751654 0.72371947 -4.46651713 0.00653204 0 0 Z " fill="#A184FE" transform="translate(286.38671875,471.8671875)"/>
<path d="M0 0 C4.32030499 2.83637415 6.42325605 6.40846426 8.671875 10.9921875 C9.166875 11.9821875 9.166875 11.9821875 9.671875 12.9921875 C10.6933418 21.06344979 8.26671608 26.34319223 3.671875 32.8046875 C-0.66995556 37.55356467 -3.6962856 38.76915026 -10.015625 39.3046875 C-16.26006215 39.21148695 -21.33895116 36.58352658 -26.140625 32.7421875 C-30.4464296 27.329176 -33.13000222 22.28798626 -32.77734375 15.22265625 C-31.4258724 8.51230718 -26.31460704 3.35535928 -21.328125 -1.0078125 C-14.84518745 -4.45117206 -6.5398743 -2.83101941 0 0 Z " fill="#A083FE" transform="translate(436.328125,112.0078125)"/>
<path d="M0 0 C8.61160692 6.00442317 8.61160692 6.00442317 10.10546875 11.390625 C11.047146 18.20136044 10.18739349 22.87451049 6.10546875 28.390625 C3.38146035 31.01988528 1.79190541 32.28027379 -1.98046875 32.88671875 C-15.41531972 32.64738055 -15.41531972 32.64738055 -20.421875 27.9609375 C-22.77455702 25.34105337 -23.89453125 23.97945946 -23.89453125 20.390625 C-24.55453125 20.390625 -25.21453125 20.390625 -25.89453125 20.390625 C-26.34434986 14.09316449 -25.69054545 9.5700263 -21.89453125 4.390625 C-15.83023291 -1.2937753 -7.68980516 -4.27557318 0 0 Z " fill="#A084FE" transform="translate(234.89453125,388.609375)"/>
<path d="M0 0 C4.41464255 2.17972976 7.28522547 4.9278382 10 9 C10 9.99 10 10.98 10 12 C10.66 12 11.32 12 12 12 C12.49989711 19.12353378 11.00348773 23.21008373 6.59765625 28.76953125 C2.99807418 32.52753013 0.13233588 33.42088118 -5.0625 33.5625 C-9.80349693 33.33050642 -13.06189313 32.62540458 -17 30 C-17 29.34 -17 28.68 -17 28 C-17.99 28 -18.98 28 -20 28 C-23.71668433 22.4249735 -23.9962343 16.55854249 -23 10 C-20.75 7 -20.75 7 -18 5 C-16.9171875 3.88625 -16.9171875 3.88625 -15.8125 2.75 C-11.50852858 -1.40555861 -5.62369949 -0.75919943 0 0 Z " fill="#A084FE" transform="translate(366,387)"/>
<path d="M0 0 C3.5 1.75 3.5 1.75 4.5 4.4375 C4.5 5.200625 4.5 5.96375 4.5 6.75 C5.985 7.245 5.985 7.245 7.5 7.75 C9.3708842 11.4917684 8.89225771 15.54520846 7.625 19.4375 C7.25375 20.200625 6.8825 20.96375 6.5 21.75 C6.21125 22.471875 5.9225 23.19375 5.625 23.9375 C4.2265654 26.19053352 2.86489211 26.64145682 0.5 27.75 C-0.16 28.74 -0.82 29.73 -1.5 30.75 C-7.32538662 32.16827223 -12.9900473 32.28159989 -18.5 29.75 C-18.5 28.76 -18.5 27.77 -18.5 26.75 C-19.0775 26.5025 -19.655 26.255 -20.25 26 C-23.12772857 24.4012619 -24.6125265 23.51380049 -26.5 20.75 C-27.30247651 15.62217508 -27.48098134 10.56120744 -24.625 6.0625 C-23.92375 5.299375 -23.2225 4.53625 -22.5 3.75 C-21.84 3.75 -21.18 3.75 -20.5 3.75 C-20.5 3.09 -20.5 2.43 -20.5 1.75 C-13.32141563 -3.29028264 -8.14330887 -2.52020114 0 0 Z " fill="#A185FE" transform="translate(501.5,172.25)"/>
<path d="M0 0 C4.86609882 1.92883193 7.68834621 5.39005458 10 10 C10.8178406 15.47437448 10.70195287 20.42762557 8.4375 25.5 C3.84911816 30.20603266 -1.02023916 32.83835929 -7.59375 33.27734375 C-12.57149074 32.70361065 -16.36356459 30.35570521 -20 27 C-23.32344976 21.78842069 -24.84671429 16.16891841 -24 10 C-19.34359832 -0.53817223 -10.251863 -1.01832121 0 0 Z " fill="#A084FE" transform="translate(168,239)"/>
<path d="M0 0 C4.95 0 9.9 0 15 0 C15 0.66 15 1.32 15 2 C15.556875 2.20625 16.11375 2.4125 16.6875 2.625 C19.90749199 4.53958983 22.23440287 6.71305831 24 10 C24.9881999 14.72139953 24.49905076 18.0553682 22.25 22.3125 C16.90322581 28.69892473 16.90322581 28.69892473 13 30 C5.64359424 30.49042705 1.20491192 29.13660795 -5 25 C-7.02127198 21.154157 -7.32507844 17.74573074 -7.375 13.4375 C-7.40335938 12.32246094 -7.43171875 11.20742187 -7.4609375 10.05859375 C-6.90752015 6.38634132 -5.91960032 5.21954746 -3 3 C-2.34 3 -1.68 3 -1 3 C-0.67 2.01 -0.34 1.02 0 0 Z " fill="#A083FE" transform="translate(154,194)"/>
</svg>
